<svg width="309" height="378" viewBox="0 0 309 378" fill="none" xmlns="http://www.w3.org/2000/svg">
<path d="M298.574 128.857C296.382 130.558 257.676 152.368 257.676 200.864C257.676 256.958 306.928 276.803 308.402 277.294C308.175 278.504 300.578 304.471 282.434 330.931C266.256 354.215 249.36 377.461 223.657 377.461C197.953 377.461 191.339 362.531 161.666 362.531C132.75 362.531 122.469 377.953 98.9577 377.953C75.4466 377.953 59.0418 356.407 40.1801 329.948C18.3323 298.877 0.680176 250.608 0.680176 204.795C0.680176 131.314 48.4581 92.3432 95.4801 92.3432C120.465 92.3432 141.293 108.748 156.979 108.748C171.91 108.748 195.194 91.3604 223.619 91.3604C234.392 91.3604 273.098 92.3432 298.574 128.857ZM210.125 60.2518C221.88 46.304 230.196 26.9508 230.196 7.59773C230.196 4.914 229.969 2.19247 229.478 0.00012207C210.352 0.718308 187.596 12.7384 173.875 28.6518C163.103 40.8987 153.048 60.2518 153.048 79.8695C153.048 82.8178 153.539 85.7662 153.766 86.7111C154.976 86.9379 156.941 87.2026 158.907 87.2026C176.068 87.2026 197.651 75.7116 210.125 60.2518Z" fill="black"/>
</svg>
